<svg xmlns="http://www.w3.org/2000/svg" viewBox="0 0 500 72" fill="#000000">
  <path d="M0 8h46v11H13v9h29v11H13v16h35v11H0V8z"/>
  <path d="M56 8h13l25 35V8h14v56H94L69 29v35H56V8z"/>
  <path d="M168 16.5c-4.5-5-11-8.5-19.5-8.5C132 8 119 19.5 119 36s13 28 29.5 28c8.5 0 15-3.5 19.5-8.5l-10-8.5c-2.5 2.8-6.5 5-10.5 5-9 0-15.5-6.5-15.5-16s6.5-16 15.5-16c4 0 8 2.2 10.5 5z"/>
  <path fill-rule="evenodd" d="M226 36c0-17.5-12.5-28-29-28s-29 10.5-29 28 12.5 28 29 28 29-10.5 29-28zm-46 0c0-10.5 6.5-17 17-17s17 6.5 17 17-6.5 17-17 17-17-6.5-17-17z"/>
  <path d="M274 36c0-17.5-12-28-28.5-28-9 0-16.5 3-21.5 8.5 3 1.8 5.5 4 7.5 6.5 3.2-3.2 8.2-5.5 14-5.5 9.5 0 16 6.8 16 18.5s-6.5 18.5-16 18.5c-5.8 0-10.5-2-14-5.5l-7.5 7C230.5 62 237.5 65 245.5 65c8 0 14.8-2.5 19.5-7V46h-18V36h27z"/>
  <path d="M192 29.5c4.5-1.5 9.8-2.5 15.5-2.5 4.2 0 8 .6 11.2 1.7v11c-3-1-6.5-1.5-10.2-1.5-4.8 0-9 .8-12.8 2.2-1.2-3.3-2-6.8-2.5-10.9h-1.2z"/>
  <path d="M314 21.5c0-9.5-8-15.5-20-15.5-11 0-19 5-22.5 13l11.5 4.8c1.6-3.8 5.2-6.2 10-6.2 4.2 0 7 1.8 7 5 0 3-2 4.5-8.5 6.2l-6.2 1.7c-10.5 2.8-17 8-17 18 0 10.5 8.5 17.2 21.5 17.2 12 0 20.5-5.5 23.5-14.2l-11.5-4.8c-1.7 4.2-5.5 7-11.5 7-5 0-8-2-8-5.5 0-3 2.3-4.7 8.8-6.5l6.2-1.7c11.5-3 18.2-8.5 18.2-18.5z"/>
  <path d="M328 8h14l15.5 28L373 8h14l-23.5 41V64h-14V49z"/>
  <path d="M446 21.5c0-9.5-8-15.5-20-15.5-11 0-19 5-22.5 13l11.5 4.8c1.6-3.8 5.2-6.2 10-6.2 4.2 0 7 1.8 7 5 0 3-2 4.5-8.5 6.2l-6.2 1.7c-10.5 2.8-17 8-17 18 0 10.5 8.5 17.2 21.5 17.2 12 0 20.5-5.5 23.5-14.2l-11.5-4.8c-1.7 4.2-5.5 7-11.5 7-5 0-8-2-8-5.5 0-3 2.3-4.7 8.8-6.5l6.2-1.7c11.5-3 18.2-8.5 18.2-18.5z"/>
</svg>
